<?xml version="1.0" standalone="no"?>
<!DOCTYPE svg PUBLIC "-//W3C//DTD SVG 20010904//EN"
 "http://www.w3.org/TR/2001/REC-SVG-20010904/DTD/svg10.dtd">
<svg version="1.0" xmlns="http://www.w3.org/2000/svg"
 width="530.000000pt" height="158.000000pt" viewBox="0 0 530.000000 158.000000"
 preserveAspectRatio="xMidYMid meet">

<g transform="translate(0.000000,158.000000) scale(0.100000,-0.100000)"
fill="#172a4a" stroke="none">
<path fill="#0059d7" d="M2638 1555 c-97 -37 -179 -118 -233 -230 -33 -69 -65 -193 -65 -257
-1 -28 -7 -37 -43 -59 -79 -48 -82 -61 -82 -399 l0 -295 28 -57 c35 -72 107
-137 201 -183 178 -88 430 -87 612 2 71 35 156 111 192 172 l27 46 3 290 c2
190 0 303 -8 327 -13 45 -52 93 -91 114 -25 13 -29 20 -29 58 0 61 -33 184
-70 257 -40 78 -114 157 -182 194 -45 24 -67 29 -138 32 -56 2 -98 -2 -122
-12z m180 -181 c80 -33 133 -108 158 -223 23 -112 48 -101 -227 -101 l-242 0
5 64 c16 193 164 319 306 260z m6 -637 c88 -50 102 -173 27 -241 -17 -16 -21
-31 -21 -88 l0 -68 -85 0 -85 0 0 68 c0 56 -4 72 -20 87 -10 9 -27 37 -36 61
-51 133 94 253 220 181z"/>
<path d="M3470 805 l0 -295 60 0 60 0 0 120 0 119 118 3 117 3 0 45 0 45 -117
3 -118 3 0 74 0 75 140 0 140 0 0 50 0 50 -200 0 -200 0 0 -295z"/>
<path d="M310 795 l0 -295 55 0 55 0 0 100 0 100 95 0 c108 0 135 9 183 64 56
64 64 145 22 226 -43 84 -85 100 -265 100 l-145 0 0 -295z m295 170 c33 -32
35 -100 4 -139 -19 -24 -26 -26 -105 -26 l-84 0 0 95 0 95 80 0 c73 0 83 -3
105 -25z"/>
<path d="M4810 1021 c0 -69 0 -70 -27 -73 -25 -3 -28 -7 -31 -45 -3 -42 -2
-43 27 -43 l31 0 0 -149 c0 -142 1 -151 23 -176 28 -33 96 -43 162 -25 47 13
49 17 39 69 -6 30 -8 31 -45 25 -63 -10 -69 1 -69 137 l0 119 45 0 45 0 0 45
0 45 -45 0 -45 0 0 70 0 70 -55 0 -55 0 0 -69z"/>
<path d="M4067 940 c-89 -28 -153 -130 -144 -229 12 -132 97 -211 227 -211
138 0 224 86 225 225 0 85 -28 144 -92 189 -35 24 -53 29 -115 32 -40 2 -86
-1 -101 -6z m139 -99 c46 -28 71 -98 55 -153 -39 -130 -186 -129 -221 2 -10
36 -9 50 5 87 29 75 98 102 161 64z"/>
<path d="M4460 731 l0 -221 55 0 55 0 0 131 c0 74 5 139 11 151 12 22 82 57
117 58 20 0 22 5 22 50 0 48 -1 50 -27 50 -36 0 -87 -31 -110 -67 l-18 -27 -5
44 -5 45 -47 3 -48 3 0 -220z"/>
<path d="M910 934 c-8 -3 -34 -15 -57 -26 l-43 -20 16 -31 c9 -18 18 -33 19
-35 1 -1 22 7 46 18 94 42 189 15 189 -55 l0 -33 -42 10 c-88 20 -197 -14
-231 -72 -22 -37 -21 -98 2 -136 48 -79 190 -85 268 -12 18 16 23 18 23 7 0
-31 39 -59 80 -59 l40 0 0 49 c0 31 -5 51 -12 53 -9 3 -15 41 -18 126 -4 101
-8 125 -26 148 -41 55 -67 67 -156 71 -46 1 -90 0 -98 -3z m154 -240 c10 -4
16 -18 16 -38 0 -45 -36 -77 -94 -83 -38 -5 -48 -2 -70 20 -32 32 -33 51 -1
82 20 21 34 25 79 25 30 0 61 -3 70 -6z"/>
<path d="M1370 921 c-51 -27 -75 -65 -75 -117 0 -60 30 -88 141 -127 76 -28
90 -36 92 -57 9 -62 -105 -67 -191 -7 -16 10 -30 18 -31 16 -2 -2 -11 -19 -20
-37 -17 -32 -17 -34 1 -48 61 -46 185 -68 255 -45 77 25 119 112 85 178 -16
31 -45 46 -157 85 -52 19 -66 28 -68 46 -2 13 2 30 8 38 18 20 89 17 135 -6
22 -11 43 -20 47 -20 12 0 39 60 32 71 -28 46 -189 65 -254 30z"/>
<path d="M1795 926 c-45 -20 -76 -59 -82 -103 -10 -79 21 -108 160 -153 77
-25 95 -51 57 -82 -33 -27 -89 -23 -153 11 l-55 29 -18 -35 -19 -34 25 -19
c75 -58 228 -66 294 -16 62 47 69 135 15 180 -16 13 -59 34 -96 46 -110 36
-133 58 -97 94 23 24 92 20 141 -8 l42 -24 21 36 c21 35 21 37 3 50 -54 42
-175 56 -238 28z"/>
</g>
</svg>
